HIERARCHY
ROOT Hips
{
	OFFSET 0.000000 0.000000 0.000000
	CHANNELS 6 Xposition Yposition Zposition Zrotation Xrotation Yrotation
	JOINT Spine
	{
		OFFSET 0.000000 -0.000000 0.070167
		CHANNELS 6 Xposition Yposition Zposition Zrotation Xrotation Yrotation
		JOINT Spine1
		{
			OFFSET 0.000000 -0.000000 0.166666
			CHANNELS 6 Xposition Yposition Zposition Zrotation Xrotation Yrotation
			JOINT Neck
			{
				OFFSET 0.000000 -0.000000 0.183780
				CHANNELS 6 Xposition Yposition Zposition Zrotation Xrotation Yrotation
				JOINT Head
				{
					OFFSET 0.000000 -0.017114 0.132633
					CHANNELS 6 Xposition Yposition Zposition Zrotation Xrotation Yrotation
					End Site
					{
						OFFSET 0.000000 -0.000000 0.171140
					}
				}
			}
			JOINT LeftShoulder
			{
				OFFSET 0.034466 0.004091 0.144174
				CHANNELS 6 Xposition Yposition Zposition Zrotation Xrotation Yrotation
				JOINT LeftArm
				{
					OFFSET 0.121044 0.000000 0.000000
					CHANNELS 6 Xposition Yposition Zposition Zrotation Xrotation Yrotation
					JOINT LeftForeArm
					{
						OFFSET 0.257070 0.000000 0.000000
						CHANNELS 6 Xposition Yposition Zposition Zrotation Xrotation Yrotation
						JOINT LeftHand
						{
							OFFSET 0.224060 0.000000 0.000000
							CHANNELS 6 Xposition Yposition Zposition Zrotation Xrotation Yrotation
							End Site
							{
								OFFSET 0.128355 0.000000 0.000000
							}
						}
					}
				}
			}
			JOINT RightShoulder
			{
				OFFSET -0.033538 0.004091 0.144174
				CHANNELS 6 Xposition Yposition Zposition Zrotation Xrotation Yrotation
				JOINT RightArm
				{
					OFFSET -0.121044 0.000000 0.000000
					CHANNELS 6 Xposition Yposition Zposition Zrotation Xrotation Yrotation
					JOINT RightForeArm
					{
						OFFSET -0.257070 0.000000 0.000000
						CHANNELS 6 Xposition Yposition Zposition Zrotation Xrotation Yrotation
						JOINT RightHand
						{
							OFFSET -0.224060 0.000000 0.000000
							CHANNELS 6 Xposition Yposition Zposition Zrotation Xrotation Yrotation
							End Site
							{
								OFFSET -0.128355 0.000000 0.000000
							}
						}
					}
				}
			}
		}
	}
	JOINT LeftUpLeg
	{
		OFFSET 0.085570 0.000000 0.000000
		CHANNELS 6 Xposition Yposition Zposition Zrotation Xrotation Yrotation
		JOINT LeftLeg
		{
			OFFSET 0.000000 0.000000 -0.385526
			CHANNELS 6 Xposition Yposition Zposition Zrotation Xrotation Yrotation
			JOINT LeftFoot
			{
				OFFSET 0.000000 0.000000 -0.365921
				CHANNELS 6 Xposition Yposition Zposition Zrotation Xrotation Yrotation
				JOINT LeftToeBase
				{
					OFFSET 0.000000 -0.128355 -0.055620
					CHANNELS 6 Xposition Yposition Zposition Zrotation Xrotation Yrotation
					End Site
					{
						OFFSET 0.000000 -0.034228 0.000000
					}
				}
			}
		}
	}
	JOINT RightUpLeg
	{
		OFFSET -0.085570 0.000000 0.000000
		CHANNELS 6 Xposition Yposition Zposition Zrotation Xrotation Yrotation
		JOINT RightLeg
		{
			OFFSET 0.000000 0.000000 -0.385526
			CHANNELS 6 Xposition Yposition Zposition Zrotation Xrotation Yrotation
			JOINT RightFoot
			{
				OFFSET 0.000000 0.000000 -0.365921
				CHANNELS 6 Xposition Yposition Zposition Zrotation Xrotation Yrotation
				JOINT RightToeBase
				{
					OFFSET 0.000000 -0.128355 -0.055620
					CHANNELS 6 Xposition Yposition Zposition Zrotation Xrotation Yrotation
					End Site
					{
						OFFSET 0.000000 -0.034228 0.000000
					}
				}
			}
		}
	}
}
MOTION
Frames: 4
Frame Time: 0.016667
0.091460 -0.682994 0.827559 4.520899 -6.299992 -1.712803 0.000000 0.000000 0.070167 -0.795105 -1.892209 0.034281 0.000000 -0.000000 0.166666 -0.227615 -0.846068 4.984524 -0.000000 -0.000000 0.183780 -1.183973 10.192492 1.468492 -0.000000 -0.017114 0.132633 -1.517437 6.835257 -3.480857 0.034466 0.004091 0.144174 0.153471 10.038151 -0.070486 0.121044 -0.000000 -0.000000 -21.741652 -4.216358 76.143523 0.257070 -0.000000 -0.000000 -16.907160 -17.122360 -18.702110 0.224060 0.000000 -0.000000 -2.142887 -19.955438 9.787711 -0.033538 0.004091 0.144174 -19.019148 7.241274 9.420953 -0.121044 -0.000000 -0.000000 51.697616 -0.450271 -79.875196 -0.257070 -0.000000 -0.000000 18.471386 0.165489 9.204692 -0.224060 0.000000 0.000000 -5.873950 -1.487651 2.982792 0.085570 0.000000 0.000000 -1.545319 6.397495 -2.427131 -0.000000 0.000000 -0.385526 -8.291664 6.661204 -0.144930 -0.000000 0.000000 -0.365921 -25.720356 -11.283717 3.394266 -0.000000 -0.128355 -0.055620 -0.000000 0.000000 -0.000001 -0.085570 0.000000 0.000000 -7.127643 9.663979 6.167083 0.000000 -0.000000 -0.385526 0.569496 1.013763 -0.358527 -0.000000 -0.000000 -0.365921 -10.172978 -1.743578 -5.589063 -0.000000 -0.128355 -0.055620 -0.000000 0.000002 -0.000001 
0.092041 -0.683155 0.827687 5.013594 -6.418076 -1.718671 0.000000 0.000000 0.070167 -0.870836 -1.736929 0.153064 -0.000000 -0.000000 0.166666 -0.257156 -0.776362 4.880043 0.000000 -0.000000 0.183780 -1.160856 9.889657 1.510952 -0.000000 -0.017114 0.132633 -1.528455 6.890667 -3.905201 0.034466 0.004091 0.144174 0.076724 9.939352 -0.030998 0.121044 0.000000 0.000000 -21.966114 -4.047892 75.756346 0.257070 -0.000000 0.000000 -16.478029 -16.156054 -17.807951 0.224060 -0.000000 0.000000 -2.301546 -18.836825 10.485848 -0.033538 0.004091 0.144174 -18.910424 7.298908 9.392902 -0.121044 -0.000000 0.000000 54.488930 -0.421865 -79.790714 -0.257070 0.000000 0.000000 19.228509 0.517473 8.970883 -0.224060 0.000000 -0.000000 -6.130488 -1.118965 2.119888 0.085570 0.000000 -0.000000 -1.545118 6.058610 -2.360502 -0.000000 0.000000 -0.385526 -8.429366 7.395073 -0.119784 0.000000 0.000000 -0.365921 -26.111395 -11.413253 3.443465 -0.000000 -0.128355 -0.055620 -0.000001 0.000001 0.000000 -0.085570 0.000000 0.000000 -7.039826 9.727945 6.141618 -0.000000 0.000000 -0.385526 0.582880 1.325575 -0.293321 0.000000 -0.000000 -0.365921 -10.741447 -1.802058 -5.591125 0.000000 -0.128355 -0.055620 -0.000000 0.000001 -0.000000 
0.092764 -0.683328 0.827701 5.519635 -6.548328 -1.727076 0.000000 0.000000 0.070167 -0.980608 -1.536577 0.228647 -0.000000 -0.000000 0.166666 -0.293807 -0.787711 4.827466 -0.000000 0.000000 0.183780 -1.285195 9.721051 1.490033 0.000000 -0.017114 0.132633 -1.676183 6.840352 -4.145473 0.034466 0.004091 0.144174 0.015980 9.892056 -0.035229 0.121044 -0.000000 0.000000 -21.948007 -3.767215 75.367456 0.257070 -0.000000 -0.000000 -16.725540 -15.296268 -17.043228 0.224060 0.000000 0.000000 -2.026690 -17.873541 9.309042 -0.033538 0.004091 0.144174 -18.607464 7.366190 9.337666 -0.121044 -0.000000 -0.000000 56.786148 -0.371762 -79.630805 -0.257070 -0.000000 -0.000000 20.066973 1.266621 8.760100 -0.224060 -0.000000 -0.000000 -6.146296 -0.334445 0.893193 0.085570 0.000000 -0.000000 -1.508830 5.731485 -2.279962 -0.000000 0.000000 -0.385526 -8.876417 8.115661 -0.024199 0.000000 0.000000 -0.365921 -26.163274 -11.505912 3.393262 -0.000000 -0.128355 -0.055620 -0.000000 0.000001 -0.000000 -0.085570 0.000000 -0.000000 -7.121583 9.763247 6.134044 -0.000000 0.000000 -0.385526 0.542609 1.669844 -0.180595 0.000000 0.000000 -0.365921 -11.162304 -1.846229 -5.731278 0.000000 -0.128355 -0.055620 -0.000000 0.000001 0.000000 
0.093526 -0.683608 0.827626 6.015780 -6.700564 -1.734323 -0.000000 0.000000 0.070167 -1.057249 -1.363811 0.363821 0.000000 -0.000000 0.166666 -0.324378 -0.706778 4.651448 -0.000000 0.000000 0.183780 -1.343753 9.305707 1.538647 0.000000 -0.017114 0.132633 -1.766148 7.057131 -4.553148 0.034466 0.004091 0.144174 -0.012907 9.871211 -0.035942 0.121044 -0.000000 -0.000000 -21.715581 -3.538156 74.990027 0.257070 -0.000000 -0.000000 -17.187891 -14.033236 -16.769108 0.224060 0.000000 -0.000000 -2.369373 -16.686946 9.621342 -0.033538 0.004091 0.144174 -18.432799 7.402579 9.363717 -0.121044 0.000000 0.000000 58.989482 -0.281916 -79.370241 -0.257070 0.000000 0.000000 21.128470 2.207808 8.780656 -0.224060 0.000000 -0.000000 -5.913924 0.585723 -0.358565 0.085570 0.000000 0.000000 -1.317932 5.402946 -2.183208 -0.000000 0.000000 -0.385526 -9.577180 8.923220 0.034277 -0.000000 0.000000 -0.365921 -26.168304 -11.683731 3.261407 0.000000 -0.128355 -0.055620 -0.000003 0.000000 0.000000 -0.085570 0.000000 0.000000 -7.174732 9.826244 6.171067 -0.000000 0.000000 -0.385526 0.710641 2.051852 -0.155231 0.000000 -0.000000 -0.365921 -11.692972 -2.065456 -5.766722 0.000000 -0.128355 -0.055620 -0.000000 0.000000 0.000001 
